# xmcd
#
# Track frame offsets: 
#        150
#        23883
#        42220
#        61552
#        80244
#        101353
#        117943
#        133282
#        151014
#        168404
#        179262
#
# Disc length: 2649 seconds
#
# Revision: 0
# Processed by: cddbd v1.5.1PL0 Copyright (c) Steve Scherf et al.
# Submitted via: ExactAudioCopy v0.95a5
#
DISCID=850a570b
DTITLE=Rodney Parker - Blow the Soot Out
DYEAR=2004
DGENRE=Country
TTITLE0=Just the Sounds
TTITLE1=200 Acres
TTITLE2=Shake
TTITLE3=Someplace Else
TTITLE4=Take the Wheel
TTITLE5=When I Wake Up
TTITLE6=Mesquite Tree
TTITLE7=Drive Away
TTITLE8=Highway Blues
TTITLE9=Bring Me My Gun
TTITLE10=Wednesday Carol
EXTD=
EXTT0=
EXTT1=
EXTT2=
EXTT3=
EXTT4=
EXTT5=
EXTT6=
EXTT7=
EXTT8=
EXTT9=
EXTT10=
PLAYORDER=
